<svg xmlns="http://www.w3.org/2000/svg" viewBox="0 0 900 600">
  <rect width="900" height="600" fill="#ffffff"/>
  <g transform="translate(450 300)">
    <circle r="150" fill="#1c4ea1"/>
    <circle r="132" fill="#ffffff"/>
    <circle r="112" fill="#d81e2f"/>
    <g fill="#ffffff" transform="scale(1.05)">
      <path d="M0-66c17 0 31 12 35 28l3 11 10 5c15 7 24 22 24 39 0 24-19 43-42 43-10 0-20-3-27-9l-8-6-9 5c-8 5-17 8-27 8-23 0-42-19-42-43 0-17 9-32 24-39l10-5 3-11c4-16 18-28 36-28z"/>
      <path d="M0-52c11 0 20 8 22 18l2 7 7 3c10 5 17 15 17 26 0 16-13 28-28 28-7 0-13-2-18-6l-5-4-6 4c-5 3-11 5-17 5-15 0-28-12-28-28 0-11 7-21 17-26l7-3 2-7c2-10 11-18 22-18z" fill="#d81e2f"/>
      <circle cx="0" cy="10" r="24" fill="#ffffff"/>
    </g>
    <g transform="translate(0 10) scale(0.75)">
      <circle cx="-54" cy="-8" r="12" fill="#0085c7"/>
      <circle cx="-27" cy="-8" r="12" fill="#000000"/>
      <circle cx="0" cy="-8" r="12" fill="#e01d25"/>
      <circle cx="27" cy="-8" r="12" fill="#f4c300"/>
      <circle cx="54" cy="-8" r="12" fill="#009f3d"/>
    </g>
  </g>
</svg>
